<?xml version="1.0" encoding="utf-8"?>
<!-- Generator: Adobe Illustrator 24.0.0, SVG Export Plug-In . SVG Version: 6.00 Build 0)  -->
<svg version="1.1" id="Layer_1" xmlns="http://www.w3.org/2000/svg" xmlns:xlink="http://www.w3.org/1999/xlink" x="0px" y="0px"
	 viewBox="0 0 256 256" style="enable-background:new 0 0 256 256;" xml:space="preserve">
<style type="text/css">
	.st0{fill:#FC5D3D;}
	.st1{fill:#AFAFAF;}
	.st2{fill:#72C2E9;}
	.st3{fill:#FFFFFF;}
	.st4{fill:#EFEFEF;}
	.st5{fill:#878787;}
	.st6{fill:#F0C020;}
	.st7{fill:#F8E5B0;}
	.st8{fill:#B34F33;}
	.st9{fill:#FFCBC3;}
	.st10{fill:#FFB69F;}
	.st11{fill:#C5E5FE;}
	.st12{fill:#13BF6D;}
	.st13{fill:#F9E5AF;}
	.st14{fill:#7A7380;}
	.st15{fill:#72C1E8;}
	.st16{fill:#C5E5FF;}
	.st17{fill:#FFCBC2;}
	.st18{fill:#6E6D6C;}
	.st19{fill:#F2E1D7;}
	.st20{fill:#7D7B79;}
	.st21{fill:#D6C0B3;}
	.st22{fill:#76FFBB;}
	.st23{fill:#CF941C;}
	.st24{fill:#7C7B7A;}
	.st25{fill:#FEB69F;}
	.st26{fill:#E8A61E;}
	.st27{fill:#EFF0F0;}
	.st28{fill:#EDC21D;}
	.st29{fill:#4BA5C8;}
	.st30{fill:#E8A61F;}
	.st31{fill:#823A26;}
	.st32{fill:#4C4944;}
	.st33{fill:#4C4945;}
</style>
<g>
	<path class="st19" d="M199.462,189.69l-8.096-4.017L128,217.097l-63.366-31.426l-8.096,4.018l-14.103,6.998v12.239L128,251.363
		c74.308-36.852,56.81-28.171,85.566-42.436v-12.239L199.462,189.69z"/>
	<polygon class="st21" points="199.462,189.69 128,225.137 56.538,189.69 64.634,185.671 128,217.097 191.366,185.673 	"/>
	<path class="st19" d="M199.48,155.422l-8.114-4.026L128,182.836l-63.366-31.44l-8.114,4.026l-14.085,6.989v12.248l22.2,11.012
		L128,217.097l63.366-31.424l22.2-11.014v-12.248L199.48,155.422z"/>
	<polygon class="st21" points="199.48,155.422 128,190.879 56.52,155.422 64.634,151.396 128,182.836 191.366,151.396 	"/>
	<path class="st19" d="M128,85.702l-85.566,42.454v12.23c28.781,14.28,11.22,5.568,85.566,42.445l63.366-31.431l22.2-11.014v-12.23
		L128,85.702z"/>
	<polygon class="st0" points="128,99.512 138.922,112.629 163.343,115.335 145.672,128.468 149.843,147.013 128,138.257 
		106.157,147.013 110.328,128.468 92.657,115.335 117.078,112.629 	"/>
	<path class="st1" d="M218.554,4.637v8.969c0,6.335-5.132,11.455-11.455,11.455H48.901c-6.323,0-11.455-5.12-11.455-11.455V4.637
		H218.554z"/>
	<path class="st12" d="M192.68,25.06v49.13c0,2.761-2.239,5-5,5h-17.36c-2.761,0-5-2.239-5-5V25.06H192.68z"/>
	<path class="st6" d="M85.18,25.06V63.3c0,2.761-2.239,5-5,5H68.32c-2.761,0-5-2.239-5-5V25.06H85.18z"/>
	<path class="st7" d="M78,61.232c-1.381,0-2.5-1.119-2.5-2.5V33.855c0-1.381,1.119-2.5,2.5-2.5s2.5,1.119,2.5,2.5v24.877
		C80.5,60.113,79.381,61.232,78,61.232z"/>
	<path class="st22" d="M185,70.804c-1.381,0-2.5-1.119-2.5-2.5V33.855c0-1.381,1.119-2.5,2.5-2.5s2.5,1.119,2.5,2.5v34.449
		C187.5,69.685,186.381,70.804,185,70.804z"/>
	<path class="st2" d="M140.225,25.06v43.38c0,2.761-2.239,5-5,5h-14.45c-2.761,0-5-2.239-5-5V25.06H140.225z"/>
	<path class="st11" d="M132.28,64.95c-1.381,0-2.5-1.119-2.5-2.5V33.855c0-1.381,1.119-2.5,2.5-2.5s2.5,1.119,2.5,2.5V62.45
		C134.78,63.831,133.661,64.95,132.28,64.95z"/>
	<path d="M72.65,110.37c-1.246,0.623-1.736,2.117-1.13,3.35c0.649,1.3,2.201,1.722,3.35,1.13c1.24-0.61,1.74-2.11,1.13-3.35
		C75.4,110.3,73.86,109.77,72.65,110.37z"/>
	<path d="M163.619,112.85l-23.42-2.595l-10.277-12.343c-0.95-1.141-2.893-1.141-3.843,0l-10.277,12.343l-23.42,2.595
		c-2.254,0.25-3.032,3.142-1.216,4.491l16.367,12.164l-3.814,16.958c-0.44,1.957,1.497,3.618,3.369,2.869L128,140.95l20.913,8.383
		c1.856,0.744,3.812-0.896,3.369-2.869l-3.814-16.958l16.367-12.164C166.655,115.989,165.868,113.1,163.619,112.85z
		 M144.181,126.462c-0.793,0.589-1.165,1.591-0.948,2.555l3.128,13.906l-17.431-6.987c-0.598-0.24-1.262-0.24-1.86,0l-17.431,6.987
		l3.128-13.906c0.217-0.964-0.154-1.966-0.948-2.555l-12.57-9.342l18.104-2.005c0.643-0.071,1.232-0.389,1.646-0.885l9-10.81
		l9,10.81c0.414,0.497,1.003,0.814,1.646,0.885l18.104,2.005L144.181,126.462z"/>
	<path d="M37.446,2.138c-1.381,0-2.5,1.119-2.5,2.5v8.969c0,7.695,6.26,13.955,13.956,13.955H60.82V63.3c0,4.136,3.364,7.5,7.5,7.5
		h11.86c4.136,0,7.5-3.364,7.5-7.5V27.562h25.595V68.44c0,4.136,3.364,7.5,7.5,7.5h14.45c4.136,0,7.5-3.364,7.5-7.5V27.562h20.095
		V74.19c0,4.136,3.364,7.5,7.5,7.5h17.36c4.136,0,7.5-3.364,7.5-7.5V27.562h11.918c7.695,0,13.956-6.26,13.956-13.955V4.638
		c0-1.381-1.119-2.5-2.5-2.5s-2.5,1.119-2.5,2.5v8.969c0,4.938-4.018,8.955-8.956,8.955c-235.347,0-130.055,0-158.197,0
		c-4.938,0-8.956-4.017-8.956-8.955V4.638C39.946,3.257,38.827,2.138,37.446,2.138z M80.18,65.8H68.32c-1.378,0-2.5-1.122-2.5-2.5
		v-9.964h16.86V63.3C82.68,64.679,81.559,65.8,80.18,65.8z M82.68,48.336H65.82V27.562h16.86V48.336z M135.225,70.94h-14.45
		c-1.378,0-2.5-1.122-2.5-2.5V56.201h19.45V68.44C137.725,69.818,136.604,70.94,135.225,70.94z M137.725,51.201h-19.45V27.562h19.45
		V51.201z M187.68,76.69h-17.36c-1.378,0-2.5-1.122-2.5-2.5V59.407h22.36V74.19C190.18,75.568,189.059,76.69,187.68,76.69z
		 M190.18,54.407h-22.36V27.562h22.36V54.407z"/>
	<path d="M237.997,172.158h-21.932v-9.748c0-0.979-0.585-1.844-1.389-2.239c-17.39-8.629-13.015-6.458-17.682-8.774l17.682-8.771
		c0.851-0.422,1.389-1.29,1.389-2.24V128.19c0.011-0.949-0.569-1.87-1.386-2.27l-85.57-42.46c-0.69-0.34-1.53-0.34-2.22,0
		l-45.28,22.47c-1.24,0.61-1.74,2.12-1.13,3.35c0.6,1.2,2.14,1.73,3.35,1.13c0,0,0.01,0,0.01-0.01L128,88.49l79.937,39.668
		c-4.064,2.016-55.728,27.644-79.937,39.652c-22.584-11.202-78.155-38.768-79.937-39.652L65.92,119.3
		c1.228-0.624,1.742-2.126,1.12-3.35c-0.59-1.21-2.14-1.73-3.35-1.13l-22.37,11.1c-0.823,0.4-1.4,1.344-1.385,2.274v12.193
		c0,0.95,0.538,1.817,1.389,2.24l17.683,8.771c-0.484,0.24-17.264,8.559-17.741,8.813c-0.823,0.436-1.33,1.31-1.33,2.199v9.748
		H18.003c-1.381,0-2.5,1.119-2.5,2.5s1.119,2.5,2.5,2.5h23.845l17.161,8.511c-18.107,8.988-17.708,8.794-17.708,8.794
		c-0.86,0.439-1.36,1.293-1.36,2.227v12.24c0,0.95,0.53,1.81,1.38,2.24l29.1,14.43c1.21,0.6,2.75,0.07,3.35-1.13
		c0.616-1.233,0.105-2.753-1.13-3.35l-27.71-13.74v-6.669l80.57,39.976v6.642L90.56,230c-1.21-0.6-2.75-0.07-3.35,1.13
		c-0.61,1.24-0.11,2.74,1.13,3.35c0,0.01,0.01,0.01,0.01,0.01l38.54,19.11c0.729,0.361,1.545,0.334,2.22,0
		c93.829-46.525,76.609-38.004,85.57-42.43c0.84-0.42,1.38-1.3,1.38-2.24v-12.24c0-0.974-0.547-1.82-1.38-2.24l-17.688-8.78
		l17.161-8.511h23.844c1.381,0,2.5-1.119,2.5-2.5S239.378,172.158,237.997,172.158z M130.5,172.152
		c27.879-13.829,9.357-4.643,80.565-39.96v6.644c-18.394,9.124-64.393,31.942-80.565,39.964V172.152z M44.935,138.836v-6.644
		c70.76,35.095,54.424,26.992,80.565,39.96v6.648C116.625,174.398,53.891,143.279,44.935,138.836z M64.631,154.188
		c31.083,15.419,16.42,8.144,62.257,30.887c0.727,0.361,1.605,0.307,2.223,0c45.945-22.796,31.907-15.832,62.257-30.887
		c8.831,4.381,5.149,2.554,16.577,8.224L128,202.078l-79.945-39.666L64.631,154.188z M211.07,207.38
		c-14.04,6.96-25.106,12.443-80.57,39.95v-6.642l80.57-39.976V207.38z M207.937,196.685L128,236.346l-79.937-39.662l16.567-8.224
		l62.26,30.88c0.741,0.364,1.58,0.315,2.22,0l62.26-30.88L207.937,196.685z M211.065,173.108L128,214.307l-83.065-41.198v-6.662
		l81.954,40.662c0.745,0.369,1.568,0.326,2.223,0l81.954-40.662V173.108z"/>
	<path d="M78.25,226.69c-0.61,1.23-0.1,2.74,1.13,3.35c1.258,0.611,2.745,0.108,3.35-1.13c0.61-1.23,0.1-2.74-1.13-3.35
		C80.39,224.96,78.85,225.49,78.25,226.69z"/>
</g>
</svg>
